<svg xmlns="http://www.w3.org/2000/svg" xmlns:xlink="http://www.w3.org/1999/xlink" width="651.021" height="745.009" viewBox="0 0 651.021 745.009">
  <defs>
    <linearGradient id="linear-gradient" x1="0.507" y1="0.809" x2="0.584" y2="0.189" gradientUnits="objectBoundingBox">
      <stop offset="0" stop-color="#022e31"/>
      <stop offset="1" stop-color="#001f21"/>
    </linearGradient>
    <linearGradient id="linear-gradient-2" x1="0.507" y1="0.809" x2="0.584" y2="0.189" xlink:href="#linear-gradient"/>
    <linearGradient id="linear-gradient-3" x1="0.507" y1="0.809" x2="0.584" y2="0.189" xlink:href="#linear-gradient"/>
    <linearGradient id="linear-gradient-4" y1="0.5" x2="1" y2="0.5" gradientUnits="objectBoundingBox">
      <stop offset="0" stop-color="#b2360b"/>
      <stop offset="1" stop-color="#db490f"/>
    </linearGradient>
    <linearGradient id="linear-gradient-5" x1="0" y1="0.5" x2="1" y2="0.5" xlink:href="#linear-gradient-4"/>
    <linearGradient id="linear-gradient-6" x1="-0.109" y1="0.236" x2="1.148" y2="0.793" gradientUnits="objectBoundingBox">
      <stop offset="0" stop-color="#e88d0a"/>
      <stop offset="1" stop-color="#db490f"/>
    </linearGradient>
    <linearGradient id="linear-gradient-7" x1="1.369" y1="1.126" x2="0.095" y2="0.017" xlink:href="#linear-gradient-4"/>
    <linearGradient id="linear-gradient-8" x1="0.167" y1="0.488" x2="0.847" y2="0.589" gradientUnits="objectBoundingBox">
      <stop offset="0" stop-color="#bc5e11"/>
      <stop offset="1" stop-color="#db490f"/>
    </linearGradient>
    <linearGradient id="linear-gradient-9" x1="1.45" y1="-0.037" x2="0.535" y2="0.379" xlink:href="#linear-gradient-6"/>
    <linearGradient id="linear-gradient-10" x1="-0.04" y1="0.986" x2="0.706" y2="0.264" gradientUnits="objectBoundingBox">
      <stop offset="0" stop-color="#e88d0a"/>
      <stop offset="1" stop-color="#ffac3e"/>
    </linearGradient>
    <linearGradient id="linear-gradient-11" x1="0" y1="0.5" x2="1" y2="0.5" xlink:href="#linear-gradient-8"/>
    <linearGradient id="linear-gradient-12" x1="0.048" y1="0.172" x2="0.859" y2="0.6" gradientUnits="objectBoundingBox">
      <stop offset="0" stop-color="#39b4ff"/>
      <stop offset="1" stop-color="#2c88db"/>
    </linearGradient>
    <linearGradient id="linear-gradient-13" x1="0.785" y1="0.132" x2="0.176" y2="0.852" xlink:href="#linear-gradient-6"/>
    <linearGradient id="linear-gradient-14" x1="0.817" y1="0.211" x2="0.019" y2="0.979" xlink:href="#linear-gradient-6"/>
  </defs>
  <g id="Wrapper" transform="translate(-1083.802 -181.991)">
    <g id="Background">
      <path id="Path_209" data-name="Path 209" d="M239.391,620.815C451.56,293.629,671.1,373.555,701.952,478.538c20.823,70.878-10.9,122.963-35.671,166.58s49.069,31.727,60.96-27.261c7.17-35.569,52.744-28.242,63.38,17.785,6.944,30.051-1.236,76.962-45.516,139.341C592.735,989.588-3.113,994.75,239.391,620.815Z" transform="translate(926.83 1.871)" fill="#ccdf8a"/>
      <path id="Path_210" data-name="Path 210" d="M512.624,511.673c91.236-70.414,218.317-86.712,182.995,76.1h0c12.47-31.2,18.851-66.876,6.38-109.333C671.2,373.455,451.665,293.529,239.5,620.715c-50,77.084-64.382,138.1-54.289,184.445,17.806-32.249,46.981-79.81,85.552-124.935,66.934-78.3,48.605,81.318,61.482,75.866C345.058,750.638,421.388,582.086,512.624,511.673Z" transform="translate(926.783 1.913)" fill="#888d47"/>
      <path id="Path_211" data-name="Path 211" d="M313.281,637.439c-7.424,16.356-28.769,9.918-18.85-9.918S320.706,621.082,313.281,637.439Z" transform="translate(880.722 -95.084)" fill="#dfdf8a"/>
      <path id="Path_212" data-name="Path 212" d="M388.477,582.122c-4.466,16.356-19.314,11.426-16.356-.986S392.943,565.766,388.477,582.122Z" transform="translate(847.172 -75.439)" fill="#dcdf8a"/>
      <path id="Path_213" data-name="Path 213" d="M1127.008,600.277c-8.526-22.969-.174-56.087,13.688-29.581S1133.04,616.576,1127.008,600.277Z" transform="translate(531.413 -71.263)" fill="#dcdf8a"/>
      <path id="Path_214" data-name="Path 214" d="M482.421,975.755c-153.24,71.516-209.675,117.975-138.971,159.736,76.562,25.637,182.473,20.126,276.377-10.962,24.941-10.092,51.679-21.576,80.158-34.8,35.381-19.6,66.238-43.559,89.5-71.458C821.729,944.2,659.615,893.045,482.421,975.755Z" transform="translate(871.725 -227.67)" fill="#fbffc0"/>
      <path id="Path_215" data-name="Path 215" d="M392.82,1275.047s-11.426,3.48-22.795,14.384c-14.036,13.456-33.583-3.6-16.878-16.936C373.506,1256.2,392.82,1275.047,392.82,1275.047Z" transform="translate(857.677 -367.341)" fill="#8d8447"/>
      <path id="Path_216" data-name="Path 216" d="M175.632,1263.017a50.128,50.128,0,0,1-18.966-9.512c-12.064-9.454-26.043,5.394-11.948,14.558C161.885,1279.257,175.632,1263.017,175.632,1263.017Z" transform="translate(945 -360.879)" fill="#8d8447"/>
      <path id="Path_217" data-name="Path 217" d="M531.177,1036.412s116.757-30.567,147.5-41.471-20.3,27.783-89.206,61.946-84.8,39.673-102.141,48.083,41.123-9.4,57.479-14.384c16.356-4.93,3.48,4.93-67.4,31.727S332,1153.168,332,1153.168s162.288-80.8,200.917-96.456-1.74-20.3-1.74-20.3" transform="translate(863.859 -252.771)" fill="#dfdc8a"/>
    </g>
    <g id="Trees">
      <path id="Path_218" data-name="Path 218" d="M834.159,495.223l-43.327-7.482,39.151-16.3-3.248-18.5H785.844l37.295-20.533L816.527,395H785.844l28.073-14.79-4.35-24.941H785.844l21.693-11.484L787.294,228.532l-11.368,4.118,8.932-17.864-.812-4.524-11.426,2.552,9.628-12.876L770.126,130.8l-16.008,91.41,10.208,8.816-11.136-3.538-2.262,13.224,8.41,11.832-10.092-2.32-10.962,62.758,26.043,12.47,4.93,18.212-33.815-14.326-8.584,49.069,27.493,13.282-29.175-3.654L719.2,421.909l35.149,37.7-38.339-19.2L698.9,538.26l54.637,58h36.425l49.707-69.6Z" transform="translate(709.767 109.367)" fill="#021013"/>
      <path id="Path_219" data-name="Path 219" d="M797.4,691.222S809,344.606,809,326.161s4.988-26.971,4.988,0-1.682,365.061-1.682,365.061Z" transform="translate(668.398 34.532)" fill="#021013"/>
      <path id="Path_220" data-name="Path 220" d="M748.184,430.362l-47.561-8.178L743.6,404.261l-3.6-20.243H695.17l40.891-22.563-7.25-41.065H695.17l30.8-16.24-4.814-27.377H695.17l23.781-12.586L696.736,137.745l-12.47,4.524,9.8-19.662-.87-4.93-12.586,2.784,10.614-14.152L677.886,30.5,660.37,130.784l11.136,9.686-12.18-3.886-2.552,14.5,9.28,12.992-11.078-2.552-12.006,68.848,28.537,13.688,5.452,20.01L639.779,248.3l-9.4,53.883L660.6,316.737l-32.075-4-6.5,37.237,38.571,41.3-42.109-21.055L599.7,477.633l60.031,63.628h39.963l54.521-76.388Z" transform="translate(751.43 151.491)" fill="url(#linear-gradient)"/>
      <path id="Path_221" data-name="Path 221" d="M707.9,645.453s12.7-380.373,12.7-400.616,5.452-29.639,5.452,0-1.8,400.616-1.8,400.616Z" transform="translate(705.987 69.397)" fill="#021013"/>
      <path id="Path_222" data-name="Path 222" d="M594.693,590.882l-37.237-6.438L591.1,570.407l-2.784-15.892H553.164l32.075-17.69-5.684-32.133H553.164l24.187-12.76-3.828-21.461H553.164l18.677-9.86-17.458-99.066-9.744,3.538,7.656-15.428-.638-3.886-9.86,2.2,8.294-11.078L539.65,277.5,525.9,356.092l8.758,7.54-9.57-3.016-1.972,11.368,7.25,10.208-8.7-2.03-9.4,53.941,22.389,10.73,4.234,15.66-29.117-12.3-7.366,42.225,23.665,11.368-25.115-3.132-5.1,29.175L526.077,560.2l-33-16.472L478.4,627.887l46.981,49.823H556.7l42.747-59.8Z" transform="translate(802.374 47.755)" fill="url(#linear-gradient-2)"/>
      <path id="Path_223" data-name="Path 223" d="M563.1,813.96s9.976-347.545,9.976-366.047,4.292-27.087,4.292,0-1.45,366.047-1.45,366.047Z" transform="translate(766.801 -16.574)" fill="#021013"/>
      <path id="Path_224" data-name="Path 224" d="M902.852,573.36l-31.089-5.394,28.131-11.716-2.378-13.282H868.168l26.8-14.732-4.756-26.913H868.168l20.184-10.614-3.132-17.922H868.168l15.6-8.236-14.558-82.768-8.178,2.958,6.438-12.876-.58-3.248-8.236,1.856,6.96-9.28L856.857,311.6l-11.484,65.6,7.308,6.38-7.946-2.552-1.682,9.512,6.09,8.468-7.25-1.682L834,442.451l18.676,8.932,3.6,13.05-24.3-10.266-6.206,35.265,19.778,9.512-21-2.61L820.316,520.7l25.231,27.029L818,533.978l-12.3,70.3,39.267,41.645h26.159l35.729-50Z" transform="translate(664.912 33.433)" fill="url(#linear-gradient-3)"/>
      <path id="Path_225" data-name="Path 225" d="M876.5,759.747s8.352-290.3,8.352-305.784,3.6-22.621,3.6,0-1.218,305.784-1.218,305.784Z" transform="translate(635.178 -20.304)" fill="#021013"/>
    </g>
    <g id="Skier">
      <g id="Group_24" data-name="Group 24" transform="translate(1101.923 505.981)">
        <path id="Path_226" data-name="Path 226" d="M222.4,1161.4s.464,14.152,21.287,18.1,99.124-28.247,150.224-49.069,194.3-84.276,197.785-86.248,0-5.278,0-5.278-43.791,20.649-73.952,28.827-172.96,69.66-221.507,88.51C247.689,1175.029,222.4,1161.4,222.4,1161.4Z" transform="translate(-192.033 -778.003)" fill="url(#linear-gradient-4)"/>
        <path id="Path_227" data-name="Path 227" d="M170.1,1141.483s-.29,14.152,20.3,19.256,100.517-22.795,152.66-40.775,198.655-73.546,202.193-75.286c3.6-1.8.29-5.278.29-5.278s-44.835,18.213-75.4,24.767c-30.567,6.5-176.5,60.089-226.032,76.214C194.576,1156.447,170.1,1141.483,170.1,1141.483Z" transform="translate(-170.068 -778.213)" fill="url(#linear-gradient-5)"/>
        <path id="Path_228" data-name="Path 228" d="M634.31,878.7s-30.741,31.2-37.179,45.125c-6.438,13.862-14.384,29.755-14.384,29.755a9.568,9.568,0,0,0-7.424,4.466c-2.958,4.466-4.93,13.862-4.93,13.862a126.079,126.079,0,0,0-9.4,11.426c-3.48,4.93-6.438,12.876-9.4,19.836,4.466,15.834,27.261,19.315,27.261,19.315s18.328-23.317,20.823-26.275.58-13.05.58-13.05l95.064-99.472Z" transform="translate(-330.292 -710.721)" fill="#0f2b44"/>
        <path id="Path_229" data-name="Path 229" d="M407,973.6s3.48,84.276,3.48,86.77,2.494,3.48,2.494,0V976.616Z" transform="translate(-269.562 -750.578)" fill="#0a1e2d"/>
        <path id="Path_230" data-name="Path 230" d="M550.714,703.529c-11.426,3.48-20.823,6.96-37.7,30.741-20.823,23.781-22.795,23.781-26.275,28.247a19.307,19.307,0,0,0-3.944,8.932s-10.382,10.382-15.834,18.85c-5.452,8.41-6.96,13.862-6.96,13.862l17.864,21.809s9.918-5.452,23.317-14.848,15.37-14.848,15.37-14.848,2.494,0,14.848-8.932c12.412-8.932,22.795-17.864,22.795-17.864s30.741,21.808,41.645,26.8c30.741.986,60.959,4.93,60.959,4.93s27.261,14.384,43.153,41.123c7.424-1.972,20.823-12.412,25.753-19.314,4.93-6.96,3.944-21.809,3.944-21.809s4.466-9.4,5.974-15.834-.522-10.9-20.3-38.165-35.671-41.123-35.671-41.123-3.944-9.4-8.932-15.834c-4.93-6.438-41.645-7.946-41.645-7.946l-48.083,19.837Z" transform="translate(-291.822 -628.236)" fill="url(#linear-gradient-6)"/>
        <path id="Path_231" data-name="Path 231" d="M747.092,797.294c4.292,1.914,29.755,16.878,29.755,16.878s31.2,22.795,40.659,25.753a29.546,29.546,0,0,1,13.862-12.876c3.944-1.972-6.96,5.974-9.918,16.356a57.184,57.184,0,0,1-1.508,10.382s7.946,19.314,5.452,24.3-27.261-6.96-27.261-6.96,11.426-8.41,14.848-13.4c3.48-4.93-9.4,5.974-25.289,1.508-15.834-4.466-10.9-9.918-10.9-9.918s17.342,3.944,33.235-3.48C778.819,831.515,738.16,793.35,747.092,797.294Z" transform="translate(-411.87 -676.412)" fill="url(#linear-gradient-7)"/>
        <g id="Group_22" data-name="Group 22" transform="translate(168.236 77.671)">
          <path id="Path_232" data-name="Path 232" d="M510.6,866a10.43,10.43,0,0,0,.638,1.16C512.688,869.364,512.05,868.378,510.6,866Z" transform="translate(-481.309 -783.058)" fill="#ffcd03"/>
          <path id="Path_233" data-name="Path 233" d="M483.591,795.734c1.8,3.6,4.234,7.714,5.8,10.208-2.552-5.394-3.48-17.864,6.612-26.565,10.9-9.4,23.317-35.671,44.835-47.561,7.424-4.118,6.9-6.9,3.016-8.816-8.7,3.422-17.4,9.512-30.741,28.421-20.823,23.781-22.795,23.781-26.275,28.247a19.307,19.307,0,0,0-3.944,8.932s-10.382,10.382-15.834,18.85c-5.452,8.41-6.96,13.862-6.96,13.862S473.672,801.186,483.591,795.734Z" transform="translate(-460.1 -723)" fill="#ffac3e"/>
        </g>
        <path id="Path_234" data-name="Path 234" d="M552.052,791.145c.522,4.466,4.466,15.834,3.944,16.878-.522.986-26.275,24.767-29.755,22.795s-9.918-14.848-10.382-11.89,2.494,11.89,2.494,14.848-.986,4.93-10.382,14.384c-9.4,9.4-18.328,12.18-18.328,12.18s1.16,3.944-2.842,8.236l2.378,2.9s9.918-5.452,23.317-14.848,15.37-14.848,15.37-14.848,2.494,0,14.848-8.932c12.412-8.932,22.795-17.864,22.795-17.864s30.741,21.809,41.645,26.8c6.322.232,12.586.522,18.56.928-16.124-16.414-29-6.9-47.329-21.229C560,806.979,551.588,786.679,552.052,791.145Z" transform="translate(-303.077 -673.685)" fill="url(#linear-gradient-8)"/>
        <path id="Path_235" data-name="Path 235" d="M698.324,711.955c-5.51,8.932-5.046,20.823-8.99,28.711s7.946-6.96,15.37-18.85,16.356-4.93,31.2-15.834,19.837-11.426,25.753-12.876c-1.972-4.466-1.972-4.466-33.931-10.9C697.976,695.076,698.324,711.955,698.324,711.955Z" transform="translate(-387.81 -628.194)" fill="url(#linear-gradient-9)"/>
        <path id="Path_236" data-name="Path 236" d="M429.548,890s24.3.928,19.314,28.189c-8.41,7.424-13.4,7.946-13.4,7.946s-6.96,7.424-10.382,8.932c-3.48,1.508-6.438-1.508-6.438-1.508s-6.438,7.946-11.89,9.918-7.946-1.972-7.946-1.972c-4.466,2.494-9.4-2.494-10.382-8.41-.986-5.974-3.48-12.412,7.946-20.3S413.25,910.3,413.25,910.3A115.069,115.069,0,0,1,429.548,890Z" transform="translate(-261.37 -715.467)" fill="#193f68"/>
        <path id="Path_237" data-name="Path 237" d="M648.768,621.5s28.769,2.958,33.7,5.974a10.448,10.448,0,0,1,4.93,8.41s5.974,4.466,5.452,16.356-20.823,15.834-33.235,38.687c-12.412,22.795-29.059,20.765-39.151,22.331-9.918,1.508-11.89-2.958-14.848-8.41s-.986-15.37-2.958-23.317S648.768,621.5,648.768,621.5Z" transform="translate(-351.711 -602.701)" fill="url(#linear-gradient-10)"/>
        <path id="Path_238" data-name="Path 238" d="M598.8,725.615c9.976,16.762,20.881,25.695,37.237,9.338A52.033,52.033,0,0,0,660.63,703.4l-23.665,10.556Z" transform="translate(-350.116 -637.098)" fill="url(#linear-gradient-11)"/>
        <path id="Path_239" data-name="Path 239" d="M679.437,690.733s18.908-22.795,24.825-29.755c5.974-6.96,4.466-8.41,5.452-19.837.522-3.48-3.944,7.424-7.424,12.876a101.333,101.333,0,0,1-8.932,11.426s9.918-27.261,10.9-29.233-11.89-2.494-20.823-4.466-3.944,35.207-3.944,35.207Z" transform="translate(-383.423 -606.972)" fill="#bc5e11"/>
        <path id="Path_240" data-name="Path 240" d="M692.038,648.2c7.946-5.974.986-12.876,4.466-20.3-7.946,5.452-8,14.732-8,14.732Z" transform="translate(-387.788 -605.389)" fill="#0a1e2d"/>
        <path id="Path_241" data-name="Path 241" d="M668.045,639.534c17.342,8.932,8.41-10.382,24.767-15.834-7.424,6.96,2.958,15.834-4.93,32.713a14.32,14.32,0,0,0,4.93-8.41c2.494,23.781-11.89,28.247-26.8,39.673C651.166,699.1,646.7,673.813,646.7,673.813Z" transform="translate(-370.233 -603.625)" fill="#0a1e2d"/>
        <path id="Path_242" data-name="Path 242" d="M566.968,645.067a5.49,5.49,0,0,1-3.48-2.494c-.986-1.972-3.48-20.3,4.93-34.685s39.731-29.7,59.974-7.946c26.275,28.247,3.944,68.906,2.958,71.864s-11.774,10.846-14.326,10.9c-2.552,0,2.726-3.6,3.828-8.236s1.334-16.994-1.044-23.2c-.232-11.426-15.254-18.618-15.254-18.618Z" transform="translate(-334.814 -589.088)" fill="url(#linear-gradient-12)"/>
        <path id="Path_243" data-name="Path 243" d="M622.743,653.136c-31.2-5.974-55.043,15.37-55.043,15.37l1.856,2.842,37.295-12.238s14.964,7.192,15.254,18.618c2.378,6.206,2.088,18.56,1.044,23.2s-6.38,8.236-3.828,8.236h0c1.044-.406,12.76-5.684,11.31-32.713C628.659,664.562,623.729,653.136,622.743,653.136Z" transform="translate(-337.054 -615.544)" fill="#175ca0"/>
        <path id="Path_244" data-name="Path 244" d="M574.5,645.981h-7.366a103.259,103.259,0,0,1,8.352-8.41c-9.918-21.809,8.41-35.671,8.41-35.671s-23.027,7.83-21.171,41.587C564.579,677.186,574.5,645.981,574.5,645.981Z" transform="translate(-334.919 -594.469)" fill="#94dbff"/>
        <path id="Path_245" data-name="Path 245" d="M583.1,704.115c7.424,14.848,20.3,25.289,24.3,26.8,3.944,1.508,16.356-.522,21.345-13.4,4.93-12.876-.986-28.769-.986-28.769L605.953,684.8Z" transform="translate(-343.522 -629.286)" fill="#edbb79"/>
        <path id="Path_246" data-name="Path 246" d="M618.923,729.055a21.123,21.123,0,0,0,9.976-11.542c4.93-12.876-.986-28.769-.986-28.769L606.1,684.8l-22.5,19.082,2.494,5.22c.406.638.812,1.334,1.276,1.972.928-.058,3.77-.174,7.946,0,5.162.232,4.118-7.192,5.626-5.684s3.944,6.438,10.382,5.974c6.438-.522,14.384-8.932,14.384-8.932S632.5,718.557,618.923,729.055Z" transform="translate(-343.732 -629.286)" fill="#d58e4f"/>
        <path id="Path_247" data-name="Path 247" d="M567.7,670.231s2.958,16.878,3.944,19.836,6.438,4.466,11.426,4.93c4.93.522,5.452-.986,6.96-4.93s1.972-4.466,6.438-1.508,9.4,6.438,16.878-.522c7.424-6.96,11.89-10.9,10.9-13.862s-6.438-15.37-7.424-17.342C615.783,654.861,580.576,656.891,567.7,670.231Z" transform="translate(-337.054 -617.269)" fill="#0a1e2d"/>
        <path id="Path_248" data-name="Path 248" d="M730.094,887.132s-52.549-.522-57.479,0a11.729,11.729,0,0,0-7.424,3.48s-7.424,0-15.834,5.452-11.426,13.862-13.862,44.6.522,53.535,0,55.507c22.331,8.41,49.069-1.508,51.041-1.972s-4.466-16.878-4.466-16.878,2.494-3.944,1.972-6.96c-.522-2.958-4.466-10.9-4.466-10.9s2.958-1.972,4.93-16.356c44.139,8.41,65.948,10.382,88.742-14.848C775.219,925.761,762.343,904.938,730.094,887.132Z" transform="translate(-365.117 -714.165)" fill="#193f68"/>
        <path id="Path_249" data-name="Path 249" d="M597.131,923.909c-6.438,13.862-14.384,29.755-14.384,29.755a9.568,9.568,0,0,0-7.424,4.466c-2.958,4.466-4.93,13.862-4.93,13.862a126.089,126.089,0,0,0-9.4,11.426c-3.48,4.93-6.438,12.876-9.4,19.837a21.233,21.233,0,0,0,7.192,10.614h0a12.106,12.106,0,0,1-1.276-8.178c.986-4.466,3.48-9.918,6.96-16.878a31.787,31.787,0,0,1,7.946-10.382s-.522,7.946,5.974,11.89c1.972,1.972-3.48-3.48-1.972-14.848,1.508-11.426,2.958-13.862,8.932-14.848-.986,5.452,2.958,10.9,2.958,10.9s-.986-12.876,2.494-19.314,8.41-23.317,13.4-26.275c1.276-.754,1.682-2.61,1.624-4.988,55.681-16.588,90.308-21,89.612-37.121-11.658-4.7-60.959-4.93-60.959-4.93S603.569,910.047,597.131,923.909Z" transform="translate(-330.292 -710.805)" fill="#193f68"/>
        <path id="Path_250" data-name="Path 250" d="M588.735,1039.16c-8.758,3.77-239.43,85.262-282.583,103.127s-72.386,19.314-80.8,17.864.522,14.848,34.221,11.89,324.692-126.385,329.158-128.415C593.2,1041.654,592.215,1037.651,588.735,1039.16Z" transform="translate(-192.031 -777.972)" fill="url(#linear-gradient-13)"/>
        <path id="Path_251" data-name="Path 251" d="M542.562,1039.406c-8.932,3.248-243.722,72.038-287.8,87.524s-73.314,15.37-81.666,13.4-.29,14.848,33.525,13.746,331.13-108.463,335.712-110.2C546.854,1042.075,546.1,1038.073,542.562,1039.406Z" transform="translate(-170.044 -778.103)" fill="url(#linear-gradient-14)"/>
        <path id="Path_252" data-name="Path 252" d="M410.979,950.16c-5.684,3.016-14.848-1.972-6.438-8.932C412.951,934.326,419.389,945.694,410.979,950.16Z" transform="translate(-267.103 -736.07)" fill="#0a1e2d"/>
        <path id="Path_253" data-name="Path 253" d="M654.476,897.8a35.608,35.608,0,0,0-5.22,2.784c-8.41,5.452-11.426,13.862-13.862,44.6s.522,53.535,0,55.507a55.018,55.018,0,0,0,14.674,3.19c-3.132-2.32-8.236-6.5-8.236-9.628,0-4.466-1.972-37.179,0-52.549C643.8,926.395,642.354,905.4,654.476,897.8Z" transform="translate(-365.075 -718.743)" fill="#3677b2"/>
        <path id="Path_254" data-name="Path 254" d="M791.748,943.417c1.218-1.508-3.19-9.976-14.21-20.417-3.306,4.234-13.34,13.92-34.337,11.948-26.8-2.494-45.125-16.356-40.137-9.4,4.93,6.96,26.275,23.781,13.4,19.836s-30.219-14.848-35.671-19.314,0,12.412,6.96,19.836a79.5,79.5,0,0,0,15.37,12.412C747.087,966.733,768.953,968.705,791.748,943.417Z" transform="translate(-383.617 -729.326)" fill="#0f2b44"/>
        <path id="Path_255" data-name="Path 255" d="M659.915,765.028c-4.408.7-5.452,5.336,0,5.858C665.367,771.466,666.353,763.984,659.915,765.028Z" transform="translate(-374.226 -662.938)" fill="#ffac3e"/>
        <path id="Path_256" data-name="Path 256" d="M614.335,764.983c-3.074-1.276-4.466,5.394,0,6.9S620.31,767.419,614.335,764.983Z" transform="translate(-355.443 -662.894)" fill="#ffac3e"/>
        <path id="Path_257" data-name="Path 257" d="M644.975,808.623c-2.842-10.5-3.712-11.832-5.046-13.862a33.771,33.771,0,0,1-2.958-5.684c-2.9-6.96-2.784-11.6-2.494-18.038.058-2.03.174-4.06.174-6.438h-2.958c0,2.32-.058,4.35-.174,6.322-.232,6.554-.406,11.774,2.726,19.314a29.179,29.179,0,0,0,3.19,6.148c1.1,1.74,1.914,2.958,4.7,12.992a56.407,56.407,0,0,0,2.494,7.308c1.566,1.044,3.19,2.146,4.814,3.19A48.176,48.176,0,0,1,644.975,808.623Z" transform="translate(-363.81 -662.801)" fill="#ffac3e"/>
        <path id="Path_258" data-name="Path 258" d="M456.111,910.9s1.508,5.162-4.93,10.15c-6.438,4.93-18.328,14.848-18.85,12.412-.522-2.494-5.452-7.424-5.452-7.424a28.18,28.18,0,0,1,0,7.424c-.522,4.466-3.944,7.424-9.4,13.862s-10.382,2.958-10.382,2.958,2.494,3.944,7.946,1.972,11.89-9.918,11.89-9.918,2.958,2.958,6.438,1.508c3.48-1.508,10.382-8.932,10.382-8.932s4.93-.522,13.4-7.946C458.373,920.006,457.735,914.786,456.111,910.9Z" transform="translate(-269.604 -724.245)" fill="#0f2b44"/>
        <path id="Path_259" data-name="Path 259" d="M929.2,964.925s187.4-26.8,190.361-27.261,2.958,2.494,0,2.958S929.2,971.363,929.2,971.363Z" transform="translate(-488.879 -735.465)" fill="#0a1e2d"/>
        <path id="Path_260" data-name="Path 260" d="M868.568,892.125s18.5-8.932,29.813,0c1.334,24.3-.058,31.727-.058,31.727s5.51,9.454,6.438,15.834c1.972,13.4-3.48,16.878-6.438,19.836a6.1,6.1,0,0,1-6.438,1.508,19.576,19.576,0,0,1-6.96.522,15.011,15.011,0,0,1-8.932,0s-3.48,5.974-5.974,4.93-7.946-4.93-8.41-15.37c-.522-10.382.522-16.82,3.712-30.219S868.568,892.125,868.568,892.125Z" transform="translate(-460.437 -714.692)" fill="#193f68"/>
        <path id="Path_261" data-name="Path 261" d="M877.2,990.713c1.044,5.858-6.438,9.918-7.946,2.958S875.23,979.287,877.2,990.713Z" transform="translate(-463.62 -755.278)" fill="#0a1e2d"/>
        <path id="Path_262" data-name="Path 262" d="M615.24,1065.2s-11.89,1.508-13.862,1.972c-1.972.522-33.467,27.029-36.425,29.987a81.671,81.671,0,0,1-11.426,8.932c-2.494,1.508,1.972,12.876,16.356,10.9s85.262-33.7,86.248-36.193,0-17.342-.522-20.823-5.046-3.48-5.046-3.48Z" transform="translate(-330.827 -785.395)" fill="#0a1e2d"/>
        <path id="Path_263" data-name="Path 263" d="M804.5,706.107s-3.944-9.4-8.932-15.834c-4-5.22-28.885-7.192-38.165-7.772,4.7,1.16,30.683,7.772,32.945,10.5,2.494,2.958,8.41,30.741,8.41,37.179s4.466-14.848,4.466-14.848,47.1,59.509,50.055,66.934,0,18.85,0,18.85a10.611,10.611,0,0,0,1.218.348v-.116s4.466-9.4,5.974-15.834-.522-10.9-20.3-38.165S804.5,706.107,804.5,706.107Z" transform="translate(-416.725 -628.32)" fill="#ffac3e"/>
        <path id="Path_264" data-name="Path 264" d="M576.1,676.458s2.32,12.238,3.306,14.21,7.424,3.944,8.41,2.958,4.35-7.83,7.424-8.41c4.93-.986,10.382,5.452,14.848,4.93s11.426-9.918,11.89-10.9c.522-.986-4.466-13.4-5.452-13.862C615.6,664.857,594.776,664.857,576.1,676.458Z" transform="translate(-340.582 -621.059)" fill="#29abe2"/>
        <g id="Group_23" data-name="Group 23" transform="translate(242.072 44.436)">
          <path id="Path_265" data-name="Path 265" d="M597.84,669.594,587.4,693.723c2.146.87,4.582,1.276,5.162.7.986-.986,4.234-7.6,7.308-8.41l8.178-18.909A83.65,83.65,0,0,0,597.84,669.594Z" transform="translate(-587.4 -666.288)" fill="#fff"/>
          <path id="Path_266" data-name="Path 266" d="M621.452,666.106,613.1,685.421a11.641,11.641,0,0,1,2.726.928l8.932-20.648C623.772,665.816,622.67,665.932,621.452,666.106Z" transform="translate(-598.194 -665.7)" fill="#fff"/>
        </g>
      </g>
      <path id="Path_267" data-name="Path 267" d="M520.929,1091.1s-37.121,26.681-40.6,27.725,3.422,8.932,10.846,6.5c5.974-1.972,53.883-16.762,61.888-19.546s0-10.382,0-10.382S533.341,1096.552,520.929,1091.1Z" transform="translate(801.953 -293.945)" fill="#0a1e2d"/>
    </g>
  </g>
</svg>
